<?xml version="1.0" encoding="utf-8"?>
<!-- Uploaded to: SVG Repo, www.svgrepo.com, Generator: SVG Repo Mixer Tools -->
<svg width="800px" height="800px" viewBox="0 0 1024 1024" class="icon"  version="1.1" xmlns="http://www.w3.org/2000/svg"><path d="M213.333333 320a21.333333 21.333333 0 0 1-21.333333-21.333333V128a21.333333 21.333333 0 1 1 42.666667 0v170.666667a21.333333 21.333333 0 0 1-21.333334 21.333333zM810.666667 320a21.333333 21.333333 0 0 1-21.333334-21.333333V128a21.333333 21.333333 0 1 1 42.666667 0v170.666667a21.333333 21.333333 0 0 1-21.333333 21.333333z" fill="#444444" /><path d="M981.333333 1002.666667H42.666667a21.333333 21.333333 0 0 1-21.333334-21.333334V298.666667a21.333333 21.333333 0 0 1 21.333334-21.333334h938.666666a21.333333 21.333333 0 0 1 21.333334 21.333334v682.666666a21.333333 21.333333 0 0 1-21.333334 21.333334z" fill="#E0E0E0" /><path d="M320 149.333333H106.666667a21.333333 21.333333 0 0 1-21.333334-21.333333V42.666667a21.333333 21.333333 0 0 1 21.333334-21.333334h213.333333a21.333333 21.333333 0 0 1 21.333333 21.333334v85.333333a21.333333 21.333333 0 0 1-21.333333 21.333333z" fill="#84C459" /><path d="M917.333333 149.333333H704a21.333333 21.333333 0 0 1-21.333333-21.333333V42.666667a21.333333 21.333333 0 0 1 21.333333-21.333334h213.333333a21.333333 21.333333 0 0 1 21.333334 21.333334v85.333333a21.333333 21.333333 0 0 1-21.333334 21.333333z" fill="#FA645A" /><path d="M362.666667 490.666667h-106.666667a21.333333 21.333333 0 1 1 0-42.666667h106.666667a21.333333 21.333333 0 1 1 0 42.666667zM768 490.666667h-106.666667a21.333333 21.333333 0 1 1 0-42.666667h106.666667a21.333333 21.333333 0 1 1 0 42.666667zM768 597.333333H256a21.333333 21.333333 0 0 0-21.333333 21.333334v256a21.333333 21.333333 0 0 0 21.333333 21.333333h512a21.333333 21.333333 0 0 0 21.333333-21.333333V618.666667a21.333333 21.333333 0 0 0-21.333333-21.333334z" fill="#444444" /><path d="M277.333333 640h128v85.333333h-128zM448 640h128v85.333333h-128zM618.666667 640h128v85.333333h-128zM277.333333 768h128v85.333333h-128zM448 768h128v85.333333h-128zM618.666667 768h128v85.333333h-128z" fill="#FFFFFF" /></svg>